<?xml version="1.0" encoding="UTF-8"?>
<svg version="1.1" xmlns="http://www.w3.org/2000/svg" width="32" height="32">
<path d="M0 0 C10.56 0 21.12 0 32 0 C32 10.56 32 21.12 32 32 C21.44 32 10.88 32 0 32 C0 21.44 0 10.88 0 0 Z " fill="#E6F4EB" transform="translate(0,0)"/>
<path d="M0 0 C4.15591729 1.38530576 5.17786565 4.23367338 7.1875 7.875 C7.55552734 8.51308594 7.92355469 9.15117187 8.30273438 9.80859375 C11 14.60262059 11 14.60262059 11 18 C4.73 18 -1.54 18 -8 18 C-8 13.27740792 -6.35101802 10.65777319 -4 6.75 C-3.6184375 6.1003125 -3.236875 5.450625 -2.84375 4.78125 C-1.90356117 3.18292899 -0.95279986 1.59083547 0 0 Z " fill="#CE5E5C" transform="translate(15,5)"/>
<path d="M0 0 C10.56 0 21.12 0 32 0 C32 4.29 32 8.58 32 13 C30.35493161 10.80657548 28.71862763 8.60607868 27.125 6.375 C24.7864972 3.76137922 23.38746155 2.82621013 20 2 C17.2663568 2.29519768 17.2663568 2.29519768 15 3 C15 2.34 15 1.68 15 1 C10.55405825 2.61497884 6.87808422 4.12191578 3.5 7.5 C1.33139449 12.56007952 1.17665317 17.5414169 1 23 C0.67 23 0.34 23 0 23 C0 15.41 0 7.82 0 0 Z " fill="#F8FCFA" transform="translate(0,0)"/>
<path d="M0 0 C-1.7342733 4.97357688 -4.43327957 9.31498953 -7.125 13.8125 C-7.59292969 14.60076172 -8.06085937 15.38902344 -8.54296875 16.20117188 C-9.69215397 18.13602454 -10.84457003 20.06887228 -12 22 C-12.66 21.67 -13.32 21.34 -14 21 C-14.5243845 14.5558971 -14.82114304 9.49017514 -10.5 4.37109375 C-7.28545745 1.43280095 -4.33489301 0 0 0 Z " fill="#119D46" transform="translate(15,1)"/>
<path d="M0 0 C5.65893033 0.40420931 8.02257794 2.20336985 12 6 C14.35119399 9.52679099 14.21443452 11.02879485 14.125 15.1875 C14.10695313 16.27417969 14.08890625 17.36085938 14.0703125 18.48046875 C14.03550781 19.72763672 14.03550781 19.72763672 14 21 C13.34 21.33 12.68 21.66 12 22 C9.99654339 18.52281278 7.99781651 15.04293033 6 11.5625 C5.42765625 10.56927734 4.8553125 9.57605469 4.265625 8.55273438 C3.72421875 7.60849609 3.1828125 6.66425781 2.625 5.69140625 C2.12226563 4.81685791 1.61953125 3.94230957 1.1015625 3.04125977 C0 1 0 1 0 0 Z " fill="#0D9C43" transform="translate(17,1)"/>
<path d="M0 0 C7.92 0 15.84 0 24 0 C23 3 23 3 20.80859375 4.65625 C16.00449909 6.95473201 11.20314917 6.77941911 6 6 C3.29658709 4.60581848 2.04401473 3.32790566 0 1 C0 0.67 0 0.34 0 0 Z " fill="#06993E" transform="translate(4,25)"/>
<path d="M0 0 C2.85984547 2.51632049 4.41468822 5.33885553 6.1875 8.6875 C6.71730469 9.68136719 7.24710938 10.67523438 7.79296875 11.69921875 C8.19128906 12.45847656 8.58960937 13.21773437 9 14 C5.81175432 15.59412284 2.37103338 15.10174735 -1.125 15.0625 C-1.87910156 15.05798828 -2.63320312 15.05347656 -3.41015625 15.04882812 C-5.27347127 15.03703499 -7.13674555 15.01909942 -9 15 C-6.09382458 12.73343156 -3.47723736 11.25566905 0 10 C0 9.67 0 9.34 0 9 C0 6 0 3 0 0 Z " fill="#DA332D" transform="translate(17,7)"/>
<path d="M0 0 C1.23681641 1.74414063 1.23681641 1.74414063 2.6015625 4.15625 C3.09140625 5.01347656 3.58125 5.87070313 4.0859375 6.75390625 C4.59382813 7.66011719 5.10171875 8.56632813 5.625 9.5 C6.140625 10.40621094 6.65625 11.31242188 7.1875 12.24609375 C8.46507852 14.4936856 9.73551992 16.74502104 11 19 C10.01 19.66 9.02 20.32 8 21 C2.04368539 10.16683233 2.04368539 10.16683233 0.25 6.375 C-0.77348665 3.87025385 -0.77348665 3.87025385 -3 3 C-3.226875 3.639375 -3.45375 4.27875 -3.6875 4.9375 C-5.48565826 9.13320261 -7.73904021 13.03900556 -10 17 C-10.66 16.67 -11.32 16.34 -12 16 C-10.63649571 12.35524815 -8.998536 9.08755513 -7 5.75 C-6.484375 4.87859375 -5.96875 4.0071875 -5.4375 3.109375 C-3.75770404 0.64445702 -2.98762379 0 0 0 Z " fill="#ECEEE8" transform="translate(18,2)"/>
<path d="M0 0 C0 2.97 0 5.94 0 9 C-3.96 9 -7.92 9 -12 9 C-10.948125 8.1646875 -10.948125 8.1646875 -9.875 7.3125 C-7.80698891 5.64909978 -5.77346534 3.9655467 -3.75 2.25 C-1 0 -1 0 0 0 Z " fill="#FAFDFB" transform="translate(32,23)"/>
<path d="M0 0 C3.75257132 1.05841755 5.79870591 2.59902943 9 5 C3.72 5 -1.56 5 -7 5 C-4.7060466 3.27953495 -2.38585576 1.5905705 0 0 Z " fill="#A72B2B" transform="translate(15,17)"/>
<path d="M0 0 C0.66 0.99 1.32 1.98 2 3 C0.68 5.31 -0.64 7.62 -2 10 C-2.66 9.67 -3.32 9.34 -4 9 C-2.80100302 5.9168649 -1.52299523 2.93720508 0 0 Z " fill="#E9EAE4" transform="translate(10,9)"/>
</svg>
